<?xml version="1.0" encoding="UTF-8" standalone="no"?>
<!-- Created with Inkscape (http://www.inkscape.org/) -->

<svg
   width="71.120003mm"
   height="128.5mm"
   viewBox="0 0 71.120008 128.50002"
   version="1.1"
   id="svg8"
   inkscape:version="1.4 (e7c3feb1, 2024-10-09)"
   sodipodi:docname="PlanetaryLFOs.svg"
   xmlns:inkscape="http://www.inkscape.org/namespaces/inkscape"
   xmlns:sodipodi="http://sodipodi.sourceforge.net/DTD/sodipodi-0.dtd"
   xmlns:xlink="http://www.w3.org/1999/xlink"
   xmlns="http://www.w3.org/2000/svg"
   xmlns:svg="http://www.w3.org/2000/svg"
   xmlns:rdf="http://www.w3.org/1999/02/22-rdf-syntax-ns#"
   xmlns:cc="http://creativecommons.org/ns#"
   xmlns:dc="http://purl.org/dc/elements/1.1/">
  <defs
     id="defs2">
    <inkscape:path-effect
       effect="bspline"
       id="path-effect11"
       is_visible="true"
       lpeversion="1.3"
       weight="33.333333"
       steps="2"
       helper_size="0"
       apply_no_weight="true"
       apply_with_weight="true"
       only_selected="false"
       uniform="false" />
    <inkscape:path-effect
       effect="bspline"
       id="path-effect9"
       is_visible="true"
       lpeversion="1.3"
       weight="33.333333"
       steps="2"
       helper_size="0"
       apply_no_weight="true"
       apply_with_weight="true"
       only_selected="false"
       uniform="false" />
    <linearGradient
       id="linearGradient1"
       inkscape:collect="always">
      <stop
         style="stop-color:#0c0c0c;stop-opacity:1;"
         offset="0"
         id="stop1" />
      <stop
         style="stop-color:#303030;stop-opacity:1;"
         offset="1"
         id="stop2" />
    </linearGradient>
    <inkscape:path-effect
       effect="spiro"
       id="path-effect37"
       is_visible="true"
       lpeversion="1" />
    <inkscape:path-effect
       effect="spiro"
       id="path-effect36"
       is_visible="true"
       lpeversion="1" />
    <inkscape:path-effect
       effect="spiro"
       id="path-effect35"
       is_visible="true"
       lpeversion="1" />
    <inkscape:path-effect
       effect="skeletal"
       id="path-effect34"
       is_visible="true"
       lpeversion="1"
       pattern="M 0,4.9921392 C 0,2.2364783 2.2364783,0 4.9921392,0 7.7478,0 9.9842783,2.2364783 9.9842783,4.9921392 9.9842783,7.7478 7.7478,9.9842783 4.9921392,9.9842783 2.2364783,9.9842783 0,7.7478 0,4.9921392 Z"
       copytype="single_stretched"
       prop_scale="1"
       scale_y_rel="false"
       spacing="0"
       normal_offset="0"
       tang_offset="0"
       prop_units="false"
       vertical_pattern="false"
       hide_knot="false"
       fuse_tolerance="0" />
    <linearGradient
       inkscape:collect="always"
       xlink:href="#linearGradient1"
       id="linearGradient2"
       x1="67.521126"
       y1="248.33841"
       x2="3.5988848"
       y2="217.16144"
       gradientUnits="userSpaceOnUse" />
  </defs>
  <sodipodi:namedview
     id="base"
     pagecolor="#ffffff"
     bordercolor="#666666"
     borderopacity="1.0"
     inkscape:pageopacity="0.0"
     inkscape:pageshadow="2"
     inkscape:zoom="1.3277223"
     inkscape:cx="89.250594"
     inkscape:cy="280.17908"
     inkscape:document-units="mm"
     inkscape:current-layer="layer2"
     showgrid="false"
     units="mm"
     inkscape:snap-bbox="true"
     inkscape:snap-page="true"
     inkscape:bbox-nodes="false"
     inkscape:snap-bbox-edge-midpoints="false"
     inkscape:window-width="1856"
     inkscape:window-height="1243"
     inkscape:window-x="43"
     inkscape:window-y="44"
     inkscape:window-maximized="0"
     inkscape:snap-bbox-midpoints="true"
     inkscape:snap-nodes="false"
     inkscape:showpageshadow="2"
     inkscape:pagecheckerboard="0"
     inkscape:deskcolor="#d1d1d1" />
  <metadata
     id="metadata5">
    <rdf:RDF>
      <cc:Work
         rdf:about="">
        <dc:format>image/svg+xml</dc:format>
        <dc:type
           rdf:resource="http://purl.org/dc/dcmitype/StillImage" />
      </cc:Work>
    </rdf:RDF>
  </metadata>
  <g
     inkscape:label="Layer 1"
     inkscape:groupmode="layer"
     id="layer1"
     transform="translate(0,-168.49998)">
    <rect
       style="display:inline;opacity:1;vector-effect:none;fill:url(#linearGradient2);fill-opacity:1;fill-rule:evenodd;stroke:none;stroke-width:0.649358;stroke-linecap:butt;stroke-linejoin:miter;stroke-miterlimit:4;stroke-dasharray:none;stroke-dashoffset:0;stroke-opacity:1;paint-order:normal"
       id="rect420"
       width="71.120003"
       height="128.5"
       x="5.9211732e-17"
       y="168.49997" />
    <path
       style="font-size:4.58611px;font-family:'Avenir Next';-inkscape-font-specification:'Avenir Next, Normal';fill:#e8df7d;stroke-width:0.264583"
       d="m 15.817023,249.4716 q -0.10548,-0.14675 -0.27058,-0.23389 -0.1651,-0.0917 -0.398992,-0.0917 -0.119239,0 -0.243064,0.0367 -0.123825,0.0367 -0.224719,0.11465 -0.100894,0.0734 -0.1651,0.18803 -0.05962,0.11466 -0.05962,0.27058 0,0.15593 0.05962,0.25683 0.05962,0.10089 0.155928,0.17427 0.100894,0.0688 0.224719,0.11465 0.128411,0.0459 0.265995,0.0917 0.169686,0.055 0.339372,0.11924 0.174272,0.0642 0.311855,0.16969 0.137584,0.10089 0.22472,0.26141 0.08714,0.15592 0.08714,0.39899 0,0.24306 -0.09631,0.42192 -0.09172,0.17427 -0.243064,0.28892 -0.146756,0.11466 -0.339373,0.16969 -0.18803,0.055 -0.380647,0.055 -0.146755,0 -0.293511,-0.0321 -0.146755,-0.0275 -0.279752,-0.0871 -0.132998,-0.0596 -0.24765,-0.15135 -0.114653,-0.0917 -0.201789,-0.21096 l 0.284339,-0.21096 q 0.10548,0.17427 0.293511,0.29351 0.192616,0.11466 0.449438,0.11466 0.123825,0 0.252236,-0.0367 0.128412,-0.0413 0.229306,-0.11924 0.10548,-0.0825 0.169686,-0.1972 0.06879,-0.11924 0.06879,-0.27517 0,-0.16969 -0.06879,-0.27975 -0.06421,-0.11466 -0.174272,-0.18803 -0.110067,-0.078 -0.252236,-0.12842 -0.14217,-0.0504 -0.298097,-0.10089 -0.160514,-0.0504 -0.316442,-0.11465 -0.155928,-0.0642 -0.279753,-0.1651 -0.123825,-0.10548 -0.201789,-0.25683 -0.07338,-0.15134 -0.07338,-0.37147 0,-0.23389 0.09172,-0.40358 0.09631,-0.16968 0.24765,-0.27975 0.151342,-0.11007 0.334786,-0.16051 0.183445,-0.0505 0.362303,-0.0505 0.3302,0 0.564092,0.11924 0.233891,0.11465 0.353131,0.27516 z m 1.307038,3.82482 h -0.311855 v -3.24697 h 0.311855 v 0.37148 h 0.01376 q 0.132997,-0.21096 0.35313,-0.31644 0.22472,-0.11007 0.454025,-0.11007 0.252236,0 0.454025,0.0871 0.206375,0.0871 0.348544,0.23848 0.146756,0.15134 0.22472,0.35771 0.08255,0.20638 0.08255,0.44485 0,0.23848 -0.08255,0.44486 -0.07796,0.20637 -0.22472,0.35771 -0.142169,0.15135 -0.348544,0.23848 -0.201789,0.0871 -0.454025,0.0871 -0.229305,0 -0.454025,-0.10548 -0.220133,-0.11007 -0.35313,-0.31186 h -0.01376 z m 1.600553,-2.17382 q 0,-0.17885 -0.05503,-0.33478 -0.05503,-0.16052 -0.160514,-0.27517 -0.100895,-0.11924 -0.252236,-0.18803 -0.151342,-0.0688 -0.343959,-0.0688 -0.178858,0 -0.3302,0.0688 -0.151341,0.0642 -0.261408,0.18345 -0.110066,0.11465 -0.174272,0.27516 -0.05962,0.15593 -0.05962,0.33937 0,0.18345 0.05962,0.34396 0.06421,0.15593 0.174272,0.27058 0.110067,0.11466 0.261408,0.18345 0.151342,0.0642 0.3302,0.0642 0.192617,0 0.343959,-0.0642 0.151341,-0.0688 0.252236,-0.18345 0.10548,-0.11924 0.160514,-0.27516 0.05503,-0.16052 0.05503,-0.33938 z m 2.637014,-0.1651 q -0.01376,-0.30268 -0.197203,-0.49988 -0.178858,-0.20179 -0.513644,-0.20179 -0.155928,0 -0.288925,0.0596 -0.132997,0.055 -0.233892,0.15593 -0.100894,0.0963 -0.160514,0.22472 -0.05962,0.12382 -0.06879,0.2614 z m 0.316442,0.1009 q 0,0.0321 0,0.0688 0,0.0367 -0.0046,0.078 h -1.77941 q 0.0046,0.16052 0.06421,0.30269 0.05962,0.14217 0.1651,0.24765 0.105481,0.10548 0.24765,0.16968 0.14217,0.0596 0.30727,0.0596 0.243063,0 0.417336,-0.11006 0.178858,-0.11466 0.27058,-0.26141 l 0.233892,0.18344 q -0.192617,0.24307 -0.426509,0.34855 -0.229305,0.10548 -0.495299,0.10548 -0.238478,0 -0.444853,-0.0825 -0.201789,-0.0871 -0.348545,-0.23848 -0.146755,-0.15134 -0.233891,-0.35772 -0.08255,-0.20637 -0.08255,-0.44944 0,-0.24306 0.08255,-0.44943 0.08255,-0.20638 0.229305,-0.35772 0.146756,-0.15134 0.343959,-0.23389 0.197202,-0.0871 0.426508,-0.0871 0.252236,0 0.444853,0.0871 0.192616,0.0825 0.321027,0.2293 0.128411,0.14217 0.192617,0.33479 0.06879,0.19262 0.06879,0.41275 z m 2.306816,-0.1009 q -0.01376,-0.30268 -0.197203,-0.49988 -0.178858,-0.20179 -0.513644,-0.20179 -0.155928,0 -0.288925,0.0596 -0.132998,0.055 -0.233892,0.15593 -0.100894,0.0963 -0.160514,0.22472 -0.05962,0.12382 -0.06879,0.2614 z m 0.316441,0.1009 q 0,0.0321 0,0.0688 0,0.0367 -0.0046,0.078 h -1.779411 q 0.0046,0.16052 0.06421,0.30269 0.05962,0.14217 0.1651,0.24765 0.10548,0.10548 0.24765,0.16968 0.142169,0.0596 0.307269,0.0596 0.243064,0 0.417336,-0.11006 0.178858,-0.11466 0.270581,-0.26141 l 0.233891,0.18344 q -0.192616,0.24307 -0.426508,0.34855 -0.229305,0.10548 -0.4953,0.10548 -0.238478,0 -0.444853,-0.0825 -0.201788,-0.0871 -0.348544,-0.23848 -0.146755,-0.15134 -0.233891,-0.35772 -0.08255,-0.20637 -0.08255,-0.44944 0,-0.24306 0.08255,-0.44943 0.08255,-0.20638 0.229305,-0.35772 0.146756,-0.15134 0.343958,-0.23389 0.197203,-0.0871 0.426509,-0.0871 0.252236,0 0.444852,0.0871 0.192617,0.0825 0.321028,0.2293 0.128411,0.14217 0.192617,0.33479 0.06879,0.19262 0.06879,0.41275 z m 2.435227,0.77505 q -0.137583,0.20638 -0.357716,0.31186 -0.220134,0.10548 -0.454025,0.10548 -0.252236,0 -0.458611,-0.0871 -0.201789,-0.0871 -0.348545,-0.23848 -0.142169,-0.15134 -0.224719,-0.35771 -0.07796,-0.20638 -0.07796,-0.44486 0,-0.23847 0.07796,-0.44485 0.08255,-0.20637 0.224719,-0.35771 0.146756,-0.15135 0.348545,-0.23848 0.206375,-0.0871 0.458611,-0.0871 0.233891,0 0.454025,0.11007 0.220133,0.10548 0.357716,0.31644 h 0.0092 v -1.69227 h 0.311855 v 3.46709 h -0.311855 v -0.3623 z m -1.59138,-0.71085 q 0,0.17886 0.05503,0.33938 0.05503,0.15592 0.155928,0.27516 0.105481,0.11466 0.256822,0.18345 0.151342,0.0642 0.343959,0.0642 0.178858,0 0.3302,-0.0642 0.151341,-0.0688 0.261408,-0.18345 0.110066,-0.11465 0.169686,-0.27058 0.0642,-0.16051 0.0642,-0.34396 0,-0.18344 -0.0642,-0.33937 -0.05962,-0.16051 -0.169686,-0.27516 -0.110067,-0.11924 -0.261408,-0.18345 -0.151342,-0.0688 -0.3302,-0.0688 -0.192617,0 -0.343959,0.0688 -0.151341,0.0688 -0.256822,0.18803 -0.100894,0.11465 -0.155928,0.27517 -0.05503,0.15593 -0.05503,0.33478 z"
       id="text32"
       aria-label="Speed" />
    <path
       d="m 41.778669,291.06558 h 0.2286 v 0.97472 h 1.22555 v -0.97472 h 0.2286 v 2.2479 h -0.2286 v -1.06363 h -1.22555 v 1.06363 h -0.2286 z m 3.203576,1.28905 q 0,-0.19368 -0.1016,-0.28893 -0.1016,-0.0952 -0.295275,-0.0952 -0.13335,0 -0.24765,0.0476 -0.1143,0.0476 -0.193675,0.127 l -0.12065,-0.14288 q 0.09208,-0.0921 0.2413,-0.1524 0.1524,-0.0603 0.3429,-0.0603 0.12065,0 0.225425,0.0349 0.104775,0.0317 0.18415,0.0984 0.07938,0.0667 0.123825,0.16827 0.04445,0.1016 0.04445,0.23813 v 0.65087 q 0,0.0857 0.0064,0.1778 0.0063,0.0921 0.01905,0.15558 H 45.01722 q -0.0095,-0.054 -0.01587,-0.11748 -0.0064,-0.0635 -0.0064,-0.12382 h -0.0063 q -0.1016,0.14922 -0.231775,0.2159 -0.127,0.0635 -0.307975,0.0635 -0.08573,0 -0.1778,-0.0254 -0.0889,-0.0222 -0.1651,-0.0762 -0.07303,-0.054 -0.123825,-0.1397 -0.04762,-0.0857 -0.04762,-0.20955 0,-0.17145 0.08572,-0.26988 0.0889,-0.1016 0.23495,-0.14922 0.14605,-0.0508 0.333375,-0.0635 0.1905,-0.0159 0.3937,-0.0159 z m -0.0635,0.2159 q -0.13335,0 -0.269875,0.0127 -0.13335,0.01 -0.244475,0.0444 -0.10795,0.0317 -0.1778,0.0953 -0.06985,0.0635 -0.06985,0.16827 0,0.0794 0.02858,0.13335 0.03175,0.054 0.08255,0.0889 0.0508,0.0317 0.111125,0.0476 0.0635,0.0127 0.127,0.0127 0.1143,0 0.2032,-0.0381 0.0889,-0.0413 0.149225,-0.10795 0.06032,-0.0699 0.09208,-0.15875 0.03175,-0.0889 0.03175,-0.18733 v -0.11112 z m 0.850902,-0.74295 0.358775,1.2065 h 0.0064 l 0.40005,-1.2065 h 0.20955 l 0.4064,1.2065 h 0.0063 l 0.3556,-1.2065 h 0.2286 l -0.4699,1.4859 h -0.23495 l -0.396875,-1.20333 h -0.0063 l -0.390525,1.20333 h -0.23495 l -0.4699,-1.4859 z m 3.0099,0.18097 h -0.4191 v 0.86678 q 0,0.0825 0.01588,0.13652 0.01588,0.054 0.04445,0.0857 0.03175,0.0286 0.07303,0.0413 0.04127,0.01 0.0889,0.01 0.04445,0 0.09208,-0.0127 0.0508,-0.0127 0.09525,-0.0349 l 0.0095,0.18733 q -0.05715,0.0222 -0.12065,0.0318 -0.06032,0.0127 -0.13335,0.0127 -0.06032,0 -0.127,-0.0159 -0.06667,-0.0159 -0.123825,-0.0603 -0.05715,-0.0444 -0.09525,-0.12065 -0.03493,-0.0762 -0.03493,-0.20003 v -0.9271 h -0.307975 v -0.18097 h 0.307975 v -0.4191 h 0.2159 v 0.4191 h 0.4191 z m 0.565148,0.0635 q 0.06032,-0.13017 0.200025,-0.20637 0.1397,-0.0762 0.29845,-0.0762 0.282575,0 0.422275,0.16827 0.142875,0.16828 0.142875,0.4445 v 0.91123 h -0.2159 v -0.82233 q 0,-0.11747 -0.01905,-0.21272 -0.01905,-0.0953 -0.06668,-0.16193 -0.04445,-0.0698 -0.123825,-0.10795 -0.0762,-0.0381 -0.193675,-0.0381 -0.08572,0 -0.168275,0.0349 -0.07937,0.0349 -0.142875,0.10795 -0.0635,0.0698 -0.1016,0.18097 -0.0381,0.10795 -0.0381,0.25718 v 0.762 h -0.2159 v -2.4003 h 0.2159 v 1.15887 z m 3.098801,0.49848 q 0,0.16827 -0.06032,0.31115 -0.05715,0.14287 -0.161925,0.24765 -0.104775,0.10477 -0.250825,0.1651 -0.14605,0.0572 -0.320675,0.0572 -0.17145,0 -0.3175,-0.0572 -0.14605,-0.0603 -0.250825,-0.1651 -0.104775,-0.10478 -0.1651,-0.24765 -0.05715,-0.14288 -0.05715,-0.31115 0,-0.16828 0.05715,-0.31115 0.06032,-0.14288 0.1651,-0.24765 0.104775,-0.10478 0.250825,-0.16193 0.14605,-0.0603 0.3175,-0.0603 0.174625,0 0.320675,0.0603 0.14605,0.0571 0.250825,0.16193 0.104775,0.10477 0.161925,0.24765 0.06032,0.14287 0.06032,0.31115 z m -0.2286,0 q 0,-0.12383 -0.04127,-0.23178 -0.0381,-0.11112 -0.111125,-0.1905 -0.07303,-0.0826 -0.1778,-0.13017 -0.104775,-0.0476 -0.23495,-0.0476 -0.130175,0 -0.23495,0.0476 -0.1016,0.0476 -0.174625,0.13017 -0.07303,0.0794 -0.1143,0.1905 -0.0381,0.10795 -0.0381,0.23178 0,0.12382 0.0381,0.23495 0.04127,0.10795 0.1143,0.1905 0.07303,0.0794 0.174625,0.127 0.104775,0.0445 0.23495,0.0445 0.130175,0 0.23495,-0.0445 0.104775,-0.0476 0.1778,-0.127 0.07303,-0.0825 0.111125,-0.1905 0.04127,-0.11113 0.04127,-0.23495 z m 0.69215,-0.41593 q 0,-0.0603 -0.0032,-0.15557 -0.0032,-0.0953 -0.0095,-0.17145 h 0.206375 q 0.0064,0.0603 0.0095,0.13335 0.0032,0.073 0.0032,0.12065 h 0.0063 q 0.0635,-0.13018 0.1905,-0.20955 0.127,-0.0825 0.28575,-0.0825 0.04128,0 0.07303,0.003 0.03493,0.003 0.06985,0.0127 l -0.02858,0.2032 q -0.01905,-0.006 -0.0635,-0.0127 -0.04445,-0.006 -0.0889,-0.006 -0.08572,0 -0.1651,0.0317 -0.07937,0.0317 -0.1397,0.1016 -0.05715,0.0667 -0.09525,0.17463 -0.03492,0.10477 -0.03492,0.254 v 0.762 h -0.2159 v -1.15888 z m 1.336677,-0.32702 q 0.0063,0.0603 0.0095,0.13335 0.0032,0.073 0.0032,0.12065 h 0.0063 q 0.0635,-0.13018 0.206375,-0.20955 0.142875,-0.0825 0.301625,-0.0825 0.282575,0 0.422275,0.16827 0.142875,0.16828 0.142875,0.4445 v 0.91123 h -0.2159 v -0.82233 q 0,-0.11747 -0.01905,-0.21272 -0.01905,-0.0953 -0.06667,-0.16193 -0.04445,-0.0698 -0.123825,-0.10795 -0.0762,-0.0381 -0.193675,-0.0381 -0.08573,0 -0.168275,0.0349 -0.07937,0.0349 -0.142875,0.10795 -0.0635,0.0698 -0.1016,0.18097 -0.0381,0.10795 -0.0381,0.25718 v 0.762 h -0.2159 v -1.15888 q 0,-0.0603 -0.0032,-0.15557 -0.0032,-0.0953 -0.0095,-0.17145 z"
       id="text33"
       style="font-size:3.175px;font-family:'Avenir Next';-inkscape-font-specification:'Avenir Next, Normal';fill:#e8df7d;stroke-width:0.264583"
       aria-label="Hawthorn" />
    <path
       style="font-style:italic;font-weight:500;font-size:5.64444px;font-family:Futura;-inkscape-font-specification:'Futura, Medium Italic';fill:#e8df7d;stroke-width:0.264583"
       d="m 138.29339,108.64892 h 0.86265 q 0.56224,0 0.85714,0.18741 0.24253,0.15159 0.38034,0.42719 0.1378,0.28388 0.1378,0.59807 0,0.45751 -0.25631,0.80477 -0.38034,0.51539 -1.1989,0.51539 h -0.46577 l -0.21222,1.72255 h -0.63114 z m 0.55672,0.58704 -0.17087,1.38631 h 0.41065 q 0.38861,0 0.59532,-0.19844 0.20946,-0.20119 0.20946,-0.57878 0,-0.60909 -0.77722,-0.60909 z m 3.16122,-0.98667 -0.57051,4.65501 h -0.60909 l 0.57327,-4.65501 z m 3.14744,2.05878 -0.31971,2.59623 h -0.60909 l 0.0358,-0.28112 q -0.39136,0.34175 -0.81028,0.34175 -0.51539,0 -0.84061,-0.35002 -0.32521,-0.35002 -0.32521,-0.90675 0,-0.64216 0.37207,-1.05282 0.37758,-0.41065 0.96738,-0.41065 0.27836,0 0.47404,0.0909 0.19844,0.091 0.40515,0.31419 l 0.0413,-0.34176 z m -0.74139,1.2237 q 0,-0.34451 -0.19843,-0.55948 -0.19844,-0.21773 -0.51263,-0.21773 -0.34176,0 -0.57327,0.26734 -0.23151,0.27009 -0.23151,0.66146 0,0.34175 0.19293,0.55948 0.19292,0.21773 0.49609,0.21773 0.33624,0 0.58153,-0.27285 0.24529,-0.27837 0.24529,-0.65595 z m 2.19935,-1.2237 -0.0276,0.23978 q 0.36105,-0.30316 0.73036,-0.30316 0.38034,0 0.60909,0.21221 0.22325,0.21222 0.22325,0.57878 0,0.19844 -0.0331,0.47404 l -0.17363,1.39458 h -0.60634 l 0.18742,-1.52687 q 0.011,-0.0854 0.0138,-0.15158 0.006,-0.0661 0.006,-0.11851 0,-0.35278 -0.38034,-0.35278 -0.23427,0 -0.40239,0.14331 -0.1378,0.113 -0.20395,0.27561 -0.0358,0.0827 -0.0606,0.20395 -0.0248,0.11851 -0.0441,0.27561 l -0.15434,1.25126 h -0.60909 l 0.31971,-2.59623 z m 2.80293,1.51585 q 0,0.28663 0.19844,0.47128 0.20119,0.18466 0.51263,0.18466 0.42719,0 0.65594,-0.3197 l 0.45475,0.2508 q -0.23702,0.3197 -0.48782,0.44648 -0.25356,0.12954 -0.6339,0.12954 -0.60358,0 -0.96187,-0.35553 -0.35829,-0.35554 -0.35829,-0.95085 0,-0.62287 0.39412,-1.0418 0.39136,-0.41616 0.98943,-0.41616 0.57878,0 0.91226,0.37482 0.339,0.37758 0.339,1.01148 0,0.0661 -0.008,0.21498 z m 1.39733,-0.49059 q -0.0965,-0.60082 -0.66421,-0.60082 -0.53744,0 -0.70005,0.60082 z m 2.05879,-0.46026 -0.25081,2.03123 h -0.60909 l 0.2508,-2.03123 h -0.3445 l 0.0689,-0.565 h 0.34451 l 0.14882,-1.2044 h 0.6091 l -0.14883,1.2044 h 0.56224 l -0.0689,0.565 z m 3.72345,-0.565 -0.3197,2.59623 h -0.60909 l 0.0358,-0.28112 q -0.39136,0.34175 -0.81028,0.34175 -0.51539,0 -0.8406,-0.35002 -0.32522,-0.35002 -0.32522,-0.90675 0,-0.64216 0.37207,-1.05282 0.37758,-0.41065 0.96738,-0.41065 0.27837,0 0.47405,0.0909 0.19843,0.091 0.40514,0.31419 l 0.0413,-0.34176 z m -0.74138,1.2237 q 0,-0.34451 -0.19844,-0.55948 -0.19844,-0.21773 -0.51263,-0.21773 -0.34175,0 -0.57326,0.26734 -0.23151,0.27009 -0.23151,0.66146 0,0.34175 0.19292,0.55948 0.19293,0.21773 0.4961,0.21773 0.33624,0 0.58153,-0.27285 0.24529,-0.27837 0.24529,-0.65595 z m 2.2021,-1.2237 -0.0276,0.22325 q 0.30868,-0.29215 0.62288,-0.29215 0.2756,0 0.5016,0.2012 l -0.38861,0.5016 q -0.16812,-0.14331 -0.33624,-0.14331 -0.11575,0 -0.20395,0.0469 -0.0882,0.0441 -0.15434,0.14332 -0.0634,0.0965 -0.10748,0.2508 -0.0413,0.15434 -0.0661,0.36931 l -0.15985,1.29536 h -0.60909 l 0.3197,-2.59623 z m 4.2857,0 -2.35093,4.08175 h -0.69453 l 1.04455,-1.80798 -0.9288,-2.27377 h 0.65043 l 0.64217,1.65916 0.93982,-1.65916 z m 3.12814,-1.65915 -0.44924,3.66833 h 1.20441 l -0.0717,0.58705 h -1.83555 l 0.52366,-4.25538 z m 3.90536,0 -0.0717,0.58704 h -1.47174 l -0.13505,1.09692 h 1.47174 l -0.0661,0.5457 h -1.4745 l -0.24805,2.02572 h -0.63114 l 0.52641,-4.25538 z m 4.70738,2.04501 q 0,0.7276 -0.38585,1.32015 -0.30593,0.46578 -0.79927,0.71934 -0.49333,0.25356 -1.0914,0.25356 -0.95636,0 -1.55994,-0.60909 -0.60358,-0.61185 -0.60358,-1.58199 0,-0.96738 0.63941,-1.59852 0.64216,-0.6339 1.62057,-0.6339 0.97841,0 1.57923,0.58704 0.60083,0.58429 0.60083,1.54341 z m -0.6339,-0.006 q 0,-0.69728 -0.41341,-1.11621 -0.41341,-0.41616 -1.1107,-0.41616 -0.70004,0 -1.17684,0.46853 -0.47129,0.46853 -0.47129,1.17133 0,0.69453 0.43821,1.14928 0.43822,0.452 1.10794,0.452 0.69729,0 1.16031,-0.48783 0.46578,-0.48231 0.46578,-1.22094 z m 2.94073,-0.0937 -0.34451,0.34451 q -0.24254,-0.21773 -0.44924,-0.21773 -0.14056,0 -0.23427,0.0799 -0.0909,0.0772 -0.0909,0.19293 0,0.113 0.0772,0.19017 0.0772,0.0799 0.32246,0.21497 0.35002,0.19568 0.46854,0.35829 0.12678,0.15985 0.12678,0.41617 0,0.36931 -0.25632,0.59255 -0.26183,0.22049 -0.68075,0.22049 -0.57051,0 -0.94533,-0.51539 l 0.39963,-0.27836 q 0.24529,0.2949 0.52365,0.2949 0.1571,0 0.2508,-0.0827 0.0965,-0.0827 0.0965,-0.21498 0,-0.11575 -0.0799,-0.18741 -0.0386,-0.0358 -0.13505,-0.0992 -0.0965,-0.0634 -0.26182,-0.15158 -0.29215,-0.16261 -0.40515,-0.31695 -0.113,-0.16261 -0.113,-0.39688 0,-0.35277 0.25907,-0.58428 0.25908,-0.23151 0.65871,-0.23151 0.44097,0 0.81304,0.37207 z"
       id="text34"
       inkscape:transform-center-x="-0.7090574"
       inkscape:transform-center-y="-5.3916498"
       transform="rotate(39.48789)"
       aria-label="Planetary LFOs" />
    <path
       style="fill:none;fill-opacity:1;stroke:#b5b100;stroke-width:0.264583;stroke-opacity:1"
       d="m -10.095211,158.40477 c 13.0473872,8.82052 21.239213,24.4028 21.108168,40.15141 -0.08622,10.36186 -3.641235,20.66503 -9.9631588,28.87532 -6.3219238,8.21029 -15.3743702,14.28044 -25.3700792,17.012"
       id="path34"
       inkscape:path-effect="#path-effect35"
       inkscape:original-d="m -10.095211,158.40477 c 6.7301407,13.15436 13.9191545,26.7676 21.108168,40.15141 7.189014,13.3838 -23.555492,30.51507 -35.333238,45.88732"
       transform="translate(6.9249882,-15.337904)" />
    <path
       style="fill:none;fill-opacity:1;stroke:#b5b100;stroke-width:0.264583;stroke-opacity:1"
       d="m 9.1774644,150.14505 c 11.2841026,14.96054 16.4224046,34.4187 13.9956336,52.99986 -1.727283,13.22536 -7.414594,26.24027 -17.3999047,35.08262 -4.99265546,4.42118 -11.0003292,7.73521 -17.4718623,9.34539 -6.471533,1.61017 -13.401619,1.48544 -19.734145,-0.60562 -1.0119,-0.33414 -2.007668,-0.71713 -2.982677,-1.14718"
       id="path35"
       inkscape:path-effect="#path-effect36"
       inkscape:original-d="m 9.1774644,150.14505 c 4.9711266,17.7431 9.4833796,35.4862 13.9956336,52.99986 4.512253,17.51366 -36.480421,29.06197 -54.605912,43.82239 -18.125493,14.76042 -1.911972,-0.68831 -2.982677,-1.14718"
       transform="translate(6.9249882,-12.125792)" />
    <path
       style="fill:none;fill-opacity:1;stroke:#b5b100;stroke-width:0.264583;stroke-opacity:1"
       d="m 28.909012,163.68181 c 7.881641,15.40858 10.351349,33.51977 6.883099,50.47606 -4.695321,22.95545 -20.48941,43.37432 -41.5280262,53.68816"
       id="path36"
       inkscape:path-effect="#path-effect37"
       inkscape:original-d="m 28.909012,163.68181 c 2.447325,16.36648 4.665213,33.6507 6.883099,50.47606 2.217888,16.82535 -27.6853508,35.63915 -41.5280262,53.68816"
       transform="translate(5.5483682,-11.437482)" />
  </g>
  <g
     inkscape:groupmode="layer"
     id="layer2"
     inkscape:label="components">
    <circle
       style="display:inline;opacity:1;vector-effect:none;fill:#ff0000;fill-opacity:1;fill-rule:evenodd;stroke:none;stroke-width:1;stroke-linecap:butt;stroke-linejoin:miter;stroke-miterlimit:4;stroke-dasharray:none;stroke-dashoffset:0;stroke-opacity:1;paint-order:normal"
       id="path4954"
       cx="20.549904"
       cy="73.103889"
       r="4"
       inkscape:label="speed" />
    <circle
       inkscape:label="tr1"
       cy="-27.061481"
       cx="73.021767"
       id="circle6"
       style="display:inline;vector-effect:none;fill:#ff00ff;fill-opacity:1;fill-rule:evenodd;stroke:none;stroke-width:1;stroke-linecap:butt;stroke-linejoin:miter;stroke-miterlimit:4;stroke-dasharray:none;stroke-dashoffset:0;stroke-opacity:1;paint-order:normal"
       r="1"
       transform="rotate(90)" />
    <circle
       style="display:inline;vector-effect:none;fill:#0000ff;fill-opacity:1;fill-rule:evenodd;stroke:none;stroke-width:1;stroke-linecap:butt;stroke-linejoin:miter;stroke-miterlimit:4;stroke-dasharray:none;stroke-dashoffset:0;stroke-opacity:1;paint-order:normal"
       id="circle5"
       cx="11.108168"
       cy="36.063763"
       r="4"
       inkscape:label="lfo1" />
    <circle
       style="display:inline;vector-effect:none;fill:#0000ff;fill-opacity:1;fill-rule:evenodd;stroke:none;stroke-width:1;stroke-linecap:butt;stroke-linejoin:miter;stroke-miterlimit:4;stroke-dasharray:none;stroke-dashoffset:0;stroke-opacity:1;paint-order:normal"
       id="circle7"
       cx="11.108168"
       cy="25.624401"
       r="4"
       inkscape:label="tr1" />
    <circle
       inkscape:label="tr2"
       cy="-79.206467"
       cx="20.967403"
       id="circle10"
       style="display:inline;vector-effect:none;fill:#ff00ff;fill-opacity:1;fill-rule:evenodd;stroke:none;stroke-width:1;stroke-linecap:butt;stroke-linejoin:miter;stroke-miterlimit:4;stroke-dasharray:none;stroke-dashoffset:0;stroke-opacity:1;paint-order:normal"
       r="1"
       transform="rotate(148.33724)" />
    <circle
       style="display:inline;vector-effect:none;fill:#0000ff;fill-opacity:1;fill-rule:evenodd;stroke:none;stroke-width:1;stroke-linecap:butt;stroke-linejoin:miter;stroke-miterlimit:4;stroke-dasharray:none;stroke-dashoffset:0;stroke-opacity:1;paint-order:normal"
       id="circle9"
       cx="23.625793"
       cy="42.985111"
       r="4"
       inkscape:label="lfo2" />
    <circle
       style="display:inline;vector-effect:none;fill:#0000ff;fill-opacity:1;fill-rule:evenodd;stroke:none;stroke-width:1;stroke-linecap:butt;stroke-linejoin:miter;stroke-miterlimit:4;stroke-dasharray:none;stroke-dashoffset:0;stroke-opacity:1;paint-order:normal"
       id="circle11"
       cx="23.625793"
       cy="32.54575"
       r="4"
       inkscape:label="tr2" />
    <circle
       inkscape:label="tr3"
       cy="-57.790325"
       cx="-55.693562"
       id="circle13"
       style="display:inline;vector-effect:none;fill:#ff00ff;fill-opacity:1;fill-rule:evenodd;stroke:none;stroke-width:1;stroke-linecap:butt;stroke-linejoin:miter;stroke-miterlimit:4;stroke-dasharray:none;stroke-dashoffset:0;stroke-opacity:1;paint-order:normal"
       r="1"
       transform="rotate(-148.33723)" />
    <circle
       style="display:inline;vector-effect:none;fill:#0000ff;fill-opacity:1;fill-rule:evenodd;stroke:none;stroke-width:1;stroke-linecap:butt;stroke-linejoin:miter;stroke-miterlimit:4;stroke-dasharray:none;stroke-dashoffset:0;stroke-opacity:1;paint-order:normal"
       id="circle12"
       cx="36.143421"
       cy="51.854317"
       r="4"
       inkscape:label="lfo3" />
    <circle
       style="display:inline;vector-effect:none;fill:#0000ff;fill-opacity:1;fill-rule:evenodd;stroke:none;stroke-width:1;stroke-linecap:butt;stroke-linejoin:miter;stroke-miterlimit:4;stroke-dasharray:none;stroke-dashoffset:0;stroke-opacity:1;paint-order:normal"
       id="circle14"
       cx="36.143421"
       cy="41.414955"
       r="4"
       inkscape:label="tr3" />
    <circle
       inkscape:label="tr4"
       cy="13.737481"
       cx="-73.021767"
       id="circle16"
       style="display:inline;vector-effect:none;fill:#ff00ff;fill-opacity:1;fill-rule:evenodd;stroke:none;stroke-width:1;stroke-linecap:butt;stroke-linejoin:miter;stroke-miterlimit:4;stroke-dasharray:none;stroke-dashoffset:0;stroke-opacity:1;paint-order:normal"
       r="1"
       transform="rotate(-90)" />
    <circle
       style="display:inline;vector-effect:none;fill:#0000ff;fill-opacity:1;fill-rule:evenodd;stroke:none;stroke-width:1;stroke-linecap:butt;stroke-linejoin:miter;stroke-miterlimit:4;stroke-dasharray:none;stroke-dashoffset:0;stroke-opacity:1;paint-order:normal"
       id="circle15"
       cx="48.661049"
       cy="64.693245"
       r="4"
       inkscape:label="lfo4" />
    <circle
       style="display:inline;vector-effect:none;fill:#0000ff;fill-opacity:1;fill-rule:evenodd;stroke:none;stroke-width:1;stroke-linecap:butt;stroke-linejoin:miter;stroke-miterlimit:4;stroke-dasharray:none;stroke-dashoffset:0;stroke-opacity:1;paint-order:normal"
       id="circle17"
       cx="48.661049"
       cy="54.253887"
       r="4"
       inkscape:label="tr4" />
    <circle
       inkscape:label="tr5"
       cy="66.514977"
       cx="-20.967407"
       id="circle19"
       style="display:inline;vector-effect:none;fill:#ff00ff;fill-opacity:1;fill-rule:evenodd;stroke:none;stroke-width:1;stroke-linecap:butt;stroke-linejoin:miter;stroke-miterlimit:4;stroke-dasharray:none;stroke-dashoffset:0;stroke-opacity:1;paint-order:normal"
       r="1"
       transform="rotate(-31.662759)" />
    <circle
       style="display:inline;vector-effect:none;fill:#0000ff;fill-opacity:1;fill-rule:evenodd;stroke:none;stroke-width:1;stroke-linecap:butt;stroke-linejoin:miter;stroke-miterlimit:4;stroke-dasharray:none;stroke-dashoffset:0;stroke-opacity:1;paint-order:normal"
       id="circle18"
       cx="61.178677"
       cy="83.543251"
       r="4"
       inkscape:label="lfo5" />
    <circle
       style="display:inline;vector-effect:none;fill:#0000ff;fill-opacity:1;fill-rule:evenodd;stroke:none;stroke-width:1;stroke-linecap:butt;stroke-linejoin:miter;stroke-miterlimit:4;stroke-dasharray:none;stroke-dashoffset:0;stroke-opacity:1;paint-order:normal"
       id="circle20"
       cx="61.178677"
       cy="73.103889"
       r="4"
       inkscape:label="tr5" />
    <circle
       inkscape:label="tr6"
       cy="45.098843"
       cx="55.69355"
       id="circle22"
       style="display:inline;vector-effect:none;fill:#ff00ff;fill-opacity:1;fill-rule:evenodd;stroke:none;stroke-width:1;stroke-linecap:butt;stroke-linejoin:miter;stroke-miterlimit:4;stroke-dasharray:none;stroke-dashoffset:0;stroke-opacity:1;paint-order:normal"
       r="1"
       transform="rotate(31.662759)" />
    <circle
       style="display:inline;vector-effect:none;fill:#0000ff;fill-opacity:1;fill-rule:evenodd;stroke:none;stroke-width:1;stroke-linecap:butt;stroke-linejoin:miter;stroke-miterlimit:4;stroke-dasharray:none;stroke-dashoffset:0;stroke-opacity:1;paint-order:normal"
       id="circle21"
       cx="48.661049"
       cy="96.587303"
       r="4"
       inkscape:label="lfo6" />
    <circle
       style="display:inline;vector-effect:none;fill:#0000ff;fill-opacity:1;fill-rule:evenodd;stroke:none;stroke-width:1;stroke-linecap:butt;stroke-linejoin:miter;stroke-miterlimit:4;stroke-dasharray:none;stroke-dashoffset:0;stroke-opacity:1;paint-order:normal"
       id="circle23"
       cx="48.661049"
       cy="86.147934"
       r="4"
       inkscape:label="tr6" />
    <circle
       style="display:inline;vector-effect:none;fill:#0000ff;fill-opacity:1;fill-rule:evenodd;stroke:none;stroke-width:1;stroke-linecap:butt;stroke-linejoin:miter;stroke-miterlimit:4;stroke-dasharray:none;stroke-dashoffset:0;stroke-opacity:1;paint-order:normal"
       id="circle24"
       cx="36.143421"
       cy="105.77215"
       r="4"
       inkscape:label="lfo7" />
    <circle
       style="display:inline;vector-effect:none;fill:#0000ff;fill-opacity:1;fill-rule:evenodd;stroke:none;stroke-width:1;stroke-linecap:butt;stroke-linejoin:miter;stroke-miterlimit:4;stroke-dasharray:none;stroke-dashoffset:0;stroke-opacity:1;paint-order:normal"
       id="circle26"
       cx="36.143421"
       cy="95.332764"
       r="4"
       inkscape:label="tr7" />
    <circle
       style="display:inline;vector-effect:none;fill:#0000ff;fill-opacity:1;fill-rule:evenodd;stroke:none;stroke-width:1;stroke-linecap:butt;stroke-linejoin:miter;stroke-miterlimit:4;stroke-dasharray:none;stroke-dashoffset:0;stroke-opacity:1;paint-order:normal"
       id="circle27"
       cx="23.625793"
       cy="112.13387"
       r="4"
       inkscape:label="lfo8" />
    <circle
       style="display:inline;vector-effect:none;fill:#0000ff;fill-opacity:1;fill-rule:evenodd;stroke:none;stroke-width:1;stroke-linecap:butt;stroke-linejoin:miter;stroke-miterlimit:4;stroke-dasharray:none;stroke-dashoffset:0;stroke-opacity:1;paint-order:normal"
       id="circle29"
       cx="23.625793"
       cy="101.6945"
       r="4"
       inkscape:label="tr8" />
    <circle
       style="display:inline;vector-effect:none;fill:#0000ff;fill-opacity:1;fill-rule:evenodd;stroke:none;stroke-width:1;stroke-linecap:butt;stroke-linejoin:miter;stroke-miterlimit:4;stroke-dasharray:none;stroke-dashoffset:0;stroke-opacity:1;paint-order:normal"
       id="circle30"
       cx="11.108168"
       cy="116.65802"
       r="4"
       inkscape:label="lfo9" />
    <circle
       style="display:inline;vector-effect:none;fill:#0000ff;fill-opacity:1;fill-rule:evenodd;stroke:none;stroke-width:1;stroke-linecap:butt;stroke-linejoin:miter;stroke-miterlimit:4;stroke-dasharray:none;stroke-dashoffset:0;stroke-opacity:1;paint-order:normal"
       id="circle32"
       cx="11.108168"
       cy="106.21864"
       r="4"
       inkscape:label="tr9" />
    <path
       style="fill:none;stroke:#b5b100;stroke-width:0.264583"
       d="m -18.016084,42.081362 c 17.44623229,2.498581 34.892464,4.997163 49.467637,13.720429 14.575172,8.723265 26.278817,23.670617 32.174593,31.297868 5.895775,7.627251 5.983443,7.934088 6.071112,8.24093"
       id="path9"
       inkscape:path-effect="#path-effect9"
       inkscape:original-d="m -18.016084,42.081362 c 17.4462322,2.498582 34.892464,4.997164 52.338696,7.495744 11.704114,14.94795 23.407759,29.895302 35.111637,44.842953 0.08767,0.306851 0.175339,0.613688 0.263009,0.92053"
       transform="matrix(1.2316621,0.33128154,-0.3300636,1.227134,22.798083,-20.625753)" />
    <path
       style="fill:none;stroke:#b5b100;stroke-width:0.264583"
       d="M 69.697258,95.340589 C 68.516681,93.64573 67.233964,91.804239 61.340064,84.179682 55.446163,76.555125 44.884388,63.066116 30.880384,55.07232 16.87638,47.078525 -0.56985199,44.579943 -18.016084,42.081362"
       id="path10"
       inkscape:path-effect="#path-effect11"
       inkscape:original-d="M 69.697258,95.340589 C 69.028502,93.289214 67.194979,91.831395 66.007939,90.044135 55.446163,76.555125 44.884388,63.066116 34.322612,49.577106 16.87638,47.078526 -0.56985209,44.579944 -18.016084,42.081362"
       transform="matrix(-0.55318517,1.1492281,-1.145003,-0.55115143,121.03601,97.750212)" />
  </g>
</svg>
